<svg xmlns="http://www.w3.org/2000/svg" width="48" height="40" viewBox="0 0 48 40" fill="none">
<g clip-path="url(#clip0_2987_14733)">
<path fill-rule="evenodd" clip-rule="evenodd" d="M45.917 38.6673C45.917 38.6673 49.0003 38.6673 49.0003 35.5562C49.0003 32.4451 45.917 23.1118 33.5837 23.1118C21.2503 23.1118 18.167 32.4451 18.167 35.5562C18.167 38.6673 21.2503 38.6673 21.2503 38.6673H45.917ZM21.3182 35.5562H45.8492C45.8636 35.5545 45.878 35.5524 45.8923 35.55L45.917 35.5438C45.9108 34.7224 45.4021 32.3393 43.5737 30.1926C41.8717 28.1798 38.8808 26.2229 33.5837 26.2229C28.2896 26.2229 25.2987 28.1829 23.5937 30.1926C21.7652 32.3393 21.2534 34.7255 21.2503 35.5438C21.2729 35.5482 21.2955 35.5523 21.3182 35.5562ZM33.5837 16.8895C35.2192 16.8895 36.7877 16.234 37.9441 15.0671C39.1006 13.9002 39.7503 12.3176 39.7503 10.6673C39.7503 9.01708 39.1006 7.43443 37.9441 6.26754C36.7877 5.10065 35.2192 4.4451 33.5837 4.4451C31.9482 4.4451 30.3796 5.10065 29.2232 6.26754C28.0667 7.43443 27.417 9.01708 27.417 10.6673C27.417 12.3176 28.0667 13.9002 29.2232 15.0671C30.3796 16.234 31.9482 16.8895 33.5837 16.8895ZM42.8337 10.6673C42.8337 11.893 42.5944 13.1067 42.1295 14.239C41.6647 15.3714 40.9833 16.4003 40.1244 17.267C39.2655 18.1337 38.2457 18.8211 37.1235 19.2902C36.0012 19.7592 34.7984 20.0007 33.5837 20.0007C32.3689 20.0007 31.1661 19.7592 30.0438 19.2902C28.9216 18.8211 27.9019 18.1337 27.0429 17.267C26.184 16.4003 25.5026 15.3714 25.0378 14.239C24.5729 13.1067 24.3337 11.893 24.3337 10.6673C24.3337 8.19196 25.3082 5.81799 27.0429 4.06765C28.7776 2.31732 31.1304 1.33398 33.5837 1.33398C36.0369 1.33398 38.3897 2.31732 40.1244 4.06765C41.8591 5.81799 42.8337 8.19196 42.8337 10.6673ZM21.053 23.9829C19.8196 23.591 18.5482 23.3334 17.2605 23.2144C16.5369 23.145 15.8105 23.1107 15.0837 23.1118C2.75033 23.1118 -0.333008 32.4451 -0.333008 35.5562C-0.333008 37.6313 0.693742 38.6673 2.75033 38.6673H15.7497C15.2926 37.6961 15.0646 36.6312 15.0837 35.5562C15.0837 32.414 16.2461 29.2033 18.4445 26.5215C19.1937 25.6069 20.0663 24.7513 21.053 23.9829ZM14.837 26.2229C9.69399 26.2851 6.77408 28.214 5.09366 30.1926C3.25291 32.3518 2.75033 34.7442 2.75033 35.5562H12.0003C12.0003 32.3051 12.9962 29.0664 14.837 26.2229ZM4.29199 12.2229C4.29199 9.74752 5.26654 7.37355 7.00125 5.62321C8.73597 3.87287 11.0887 2.88954 13.542 2.88954C15.9952 2.88954 18.348 3.87287 20.0827 5.62321C21.8174 7.37355 22.792 9.74752 22.792 12.2229C22.792 14.6982 21.8174 17.0722 20.0827 18.8225C18.348 20.5729 15.9952 21.5562 13.542 21.5562C11.0887 21.5562 8.73597 20.5729 7.00125 18.8225C5.26654 17.0722 4.29199 14.6982 4.29199 12.2229ZM13.542 6.00065C11.9065 6.00065 10.338 6.6562 9.1815 7.8231C8.02503 8.98999 7.37533 10.5726 7.37533 12.2229C7.37533 13.8731 8.02503 15.4558 9.1815 16.6226C10.338 17.7895 11.9065 18.4451 13.542 18.4451C15.1775 18.4451 16.746 17.7895 17.9025 16.6226C19.059 15.4558 19.7087 13.8731 19.7087 12.2229C19.7087 10.5726 19.059 8.98999 17.9025 7.8231C16.746 6.6562 15.1775 6.00065 13.542 6.00065Z" fill="#E77C40"/>
</g>
<defs>
<clipPath id="clip0_2987_14733">
<rect width="48" height="39.5295" fill="white"/>
</clipPath>
</defs>
</svg>