<svg xmlns="http://www.w3.org/2000/svg" width="24" height="24" viewBox="0 0 24 24" fill="none">
<path d="M23.0766 12.4857L13.7653 3.17441C13.5917 2.99967 13.3851 2.86112 13.1576 2.76682C12.93 2.67251 12.686 2.62432 12.4397 2.62504H3.75001C3.45164 2.62504 3.16549 2.74356 2.95451 2.95454C2.74353 3.16552 2.62501 3.45167 2.62501 3.75004V12.4397C2.62429 12.686 2.67248 12.9301 2.76679 13.1576C2.86109 13.3852 2.99963 13.5917 3.17438 13.7654L12.4856 23.0766C12.8372 23.4281 13.3141 23.6256 13.8113 23.6256C14.3084 23.6256 14.7853 23.4281 15.1369 23.0766L23.0766 15.1369C23.4281 14.7853 23.6255 14.3085 23.6255 13.8113C23.6255 13.3141 23.4281 12.8373 23.0766 12.4857ZM13.8113 21.2204L4.87501 12.2813V4.87504H12.2813L21.2175 13.8113L13.8113 21.2204ZM9.37501 7.87504C9.37501 8.17171 9.28703 8.46172 9.12221 8.70839C8.95739 8.95507 8.72312 9.14733 8.44903 9.26086C8.17494 9.37439 7.87334 9.40409 7.58237 9.34622C7.2914 9.28834 7.02413 9.14548 6.81435 8.9357C6.60457 8.72592 6.46171 8.45865 6.40383 8.16767C6.34595 7.8767 6.37566 7.5751 6.48919 7.30101C6.60272 7.02692 6.79498 6.79266 7.04165 6.62783C7.28833 6.46301 7.57834 6.37504 7.87501 6.37504C8.27283 6.37504 8.65436 6.53307 8.93567 6.81438C9.21697 7.09568 9.37501 7.47721 9.37501 7.87504Z" fill="black" fill-opacity="0.4"/>
</svg>